<svg width="149" height="33" viewBox="0 0 149 33" fill="none" xmlns="http://www.w3.org/2000/svg">
<path d="M24.558 31.8094H31.0961L19.3091 0.5H11.9882L0.201172 31.8094H6.417L8.81124 25.3173H22.1638L24.558 31.8094ZM14.5666 9.80072L15.4875 6.5777L16.4084 9.80072L20.3681 20.5288H10.6069L14.5666 9.80072Z" fill="white"/>
<path d="M54.6087 15.8784C53.7799 9.5705 49.3598 6.43957 43.7425 6.43957C36.6519 6.43957 32.0936 11.136 32.0936 19.5158C32.0936 27.5273 36.5138 32.5 43.7886 32.5C49.3598 32.5 53.6879 29.5993 54.7929 23.4295H48.8533C48.2548 26.2381 46.4591 27.6194 43.9267 27.6194C40.1972 27.6194 38.1713 24.7187 38.1713 19.5158C38.1713 14.2209 40.1051 11.3201 43.7425 11.3201C46.2289 11.3201 48.1627 12.6554 48.7152 15.8784H54.6087Z" fill="white"/>
<path d="M79.7778 15.8784C78.949 9.5705 74.5289 6.43957 68.9116 6.43957C61.821 6.43957 57.2627 11.136 57.2627 19.5158C57.2627 27.5273 61.6828 32.5 68.9576 32.5C74.5289 32.5 78.8569 29.5993 79.962 23.4295H74.0224C73.4238 26.2381 71.6282 27.6194 69.0958 27.6194C65.3663 27.6194 63.3404 24.7187 63.3404 19.5158C63.3404 14.2209 65.2742 11.3201 68.9116 11.3201C71.3979 11.3201 73.3317 12.6554 73.8843 15.8784H79.7778Z" fill="white"/>
<path d="M106.098 23.7518H99.8821C99.0994 26.3763 97.2116 27.6655 94.449 27.6655C90.8577 27.6655 88.7857 25.1791 88.5094 20.6669H105.914V19.2856C105.914 11.3201 101.448 6.43957 94.2188 6.43957C87.0361 6.43957 82.4318 11.136 82.4318 19.5158C82.4318 27.5734 86.99 32.5 94.449 32.5C100.343 32.5 104.763 29.4612 106.098 23.7518ZM94.2188 11.2741C97.3037 11.2741 99.1915 13.3 99.744 16.9835H88.6476C89.2001 13.254 91.0879 11.2741 94.2188 11.2741Z" fill="white"/>
<path d="M109.876 31.8094H115.77V17.4899C115.77 14.1748 117.795 11.3201 121.064 11.3201C124.057 11.3201 125.485 13.2079 125.485 16.5691V31.8094H131.378V15.3719C131.378 9.38633 128.017 6.43957 123.09 6.43957C119.959 6.43957 117.381 7.77482 115.77 10.4453V7.13022H109.876V31.8094Z" fill="white"/>
<path d="M137.132 24.1201C137.132 29.6453 139.526 32.5 144.545 32.5C146.156 32.5 147.491 32.2237 148.136 31.9014V27.5734H147.031C143.762 27.5734 143.025 26.1921 143.025 23.6137V11.6885H148.228V7.13022H143.025V1.4669H137.132V7.13022H133.955V11.6885H137.132V24.1201Z" fill="white"/>
</svg>
