<svg width="134" height="29" viewBox="0 0 134 29" fill="none" xmlns="http://www.w3.org/2000/svg">
<path d="M6.75035 29V0H0.257812V29H6.75035Z" fill="white"/>
<path d="M18.8055 29V18.4821H23.0906C26.4667 18.4821 27.5488 19.2179 28.7174 21.4687L32.6995 29H40.2309L36.0324 21.209C34.9503 19.1746 33.9548 17.7896 31.3577 17.097V16.7507C36.8115 16.2313 39.5383 13.4179 39.5383 8.7C39.5383 3.1597 35.4697 0 28.3279 0H12.313V29H18.8055ZM18.8055 5.84328H28.2846C31.3577 5.84328 32.7428 6.83881 32.7428 9.69552C32.7428 12.7254 31.3577 13.591 28.2846 13.591H18.8055V5.84328Z" fill="white"/>
<path d="M79.8087 29V23.1567H50.9385V17.3134H79.1594V11.5134H50.9385V5.84328H79.8087V0H44.446V29H79.8087Z" fill="white"/>
<path d="M91.3985 29V15.0194L91.1388 9.69552H91.5716L95.2507 15.1493L105.942 29H112.867V0H106.375V13.9806L106.678 19.8239H106.201L102.219 13.7209L91.8313 0H84.906V29H91.3985Z" fill="white"/>
<path d="M133.55 29V23.1567H124.969V17.3134H132.9V11.5134H124.969V5.84328H133.55V0H118.476V29H133.55Z" fill="white"/>
</svg>
