<svg width="89" height="35" viewBox="0 0 89 35" fill="none" xmlns="http://www.w3.org/2000/svg">
<path d="M12.1799 34.2524V15.9709C12.1799 10.534 13.0432 9.24272 16.4964 9.24272C20.0824 9.24272 20.8129 11.4175 20.8129 15.4951V34.2524H32.7662V10.7379C32.7662 3.87379 29.0474 0 22.9379 0C16.0979 0 13.1096 5.09708 12.1799 10.6699V0.679611H0.226562V34.2524H12.1799Z" fill="white"/>
<path d="M44.6121 19.7087C48.995 19.7087 52.6474 16.1748 52.6474 11.4854C52.6474 6.72815 48.995 3.19417 44.6121 3.19417C40.2293 3.19417 36.5768 6.72815 36.5768 11.4854C36.5768 16.1748 40.2293 19.7087 44.6121 19.7087Z" fill="white"/>
<path d="M63.8853 35C70.5925 35 73.116 29.6311 74.1121 25.2816V27.8641C74.1121 32.6214 77.7645 34.2524 81.4833 34.2524H88.2569V24.9417H86.3311C85.1357 24.9417 84.7373 24.466 84.7373 22.9709V12.8447C84.7373 4.21359 79.5575 0 71.1237 0C64.2838 0 58.5063 2.71845 54.3891 6.52427L59.7017 15.4951C62.4244 12.3689 66.6745 10.2621 70.4597 10.2621C73.116 10.2621 74.1121 11.0777 74.4441 12.9806L65.6119 15.767C58.3071 18.0777 55.3188 21.068 55.3188 26.5049C55.3188 32.5534 59.104 35 63.8853 35ZM65.944 24.8058C65.944 23.9223 66.4752 23.2427 68.7331 22.4272L74.1121 20.4563V21.4757C74.1121 24.9417 72.3855 26.5049 68.4675 26.5049C66.7409 26.5049 65.944 25.8932 65.944 24.8058Z" fill="white"/>
</svg>
