<svg width="184" height="31" viewBox="0 0 184 31" fill="none" xmlns="http://www.w3.org/2000/svg">
<path d="M10.9615 30.5C18.3461 30.5 23.4616 27.4616 23.4616 21.3847C23.4616 16.5385 21 14.1154 14.5 12.8077C10.7692 12.0385 9.53845 11.2308 9.53845 9.6923C9.53845 8.1923 10.4231 7.23076 12 7.23076C14.3461 7.23076 15.1538 8.57691 15.1538 11.4231L23.0768 8.42307C23.0001 2.69231 19.5385 0.5 12.2308 0.5C4.57693 0.5 0.346153 4.42308 0.346153 9.61538C0.346153 15.0384 3.15385 17.7307 10.1923 18.923C14.0769 19.5769 15.1923 20.3847 15.1923 21.8462C15.1923 22.9231 14.2692 23.7692 11.7692 23.7692C8.88461 23.7692 7.76923 22.8461 7.76923 21.1538C7.76923 20.6538 7.84614 20.2308 8 19.5769L0.230768 21.6153C0.115383 22.0769 0 22.7692 0 23.8846C0 27.6923 4.38461 30.5 10.9615 30.5Z" fill="white"/>
<path d="M37.4036 0.5C29.3652 0.5 24.4805 5.26922 24.4805 13.5769C24.4805 21.8846 29.3652 26.6538 37.4036 26.6538C45.4805 26.6538 50.2881 21.8846 50.2881 13.5769C50.2881 5.26922 45.4805 0.5 37.4036 0.5ZM37.4036 7.23076C40.0189 7.23076 41.1343 9.15385 41.1343 13.5769C41.1343 18 40.0189 19.923 37.4036 19.923C34.7882 19.923 33.6344 18 33.6344 13.5769C33.6344 9.15385 34.7882 7.23076 37.4036 7.23076Z" fill="white"/>
<path d="M85.1546 0.884652H73.2316L70.3086 12.1539L69.1932 16.8846H69.1162L68.0008 12.1539L65.0777 0.884652H52.5392V26.2693H60.3855V17.4616L60.27 8.92311H60.4239L65.2701 26.2693H72.4239L77.347 8.92311H77.4623L77.347 17.4616V26.2693H85.1546V0.884652Z" fill="white"/>
<path d="M88.2403 26.2693H109.779V19.6924H97.2017V16.6923H106.971V10.6154H97.2017V7.46157H109.317V0.884652H88.2403V26.2693Z" fill="white"/>
<path d="M124.008 0.884652H111.546V26.2693H124.008C131.969 26.2693 136.046 21.6538 136.046 13.5769C136.046 5.50003 131.969 0.884652 124.008 0.884652ZM122.738 19.8846H120.507V7.26926H122.738C126.046 7.26926 126.892 9.23079 126.892 13.5769C126.892 17.9231 126.046 19.8846 122.738 19.8846Z" fill="white"/>
<path d="M162.255 26.2693L153.985 0.884652H143.217L134.986 26.2693H143.909L145.101 21.4232H151.947L153.101 26.2693H162.255ZM146.447 15.8462L148.563 7.0385L150.64 15.8462H146.447Z" fill="white"/>
<path d="M183.2 0.884652H174.393L171.7 6.69234L169.892 11.3077L168.085 6.69234L165.393 0.884652H156.47L165.355 17.4616V26.2693H174.317V17.4616L183.2 0.884652Z" fill="white"/>
</svg>
