<svg width="330" height="92" viewBox="0 0 330 92" fill="none" xmlns="http://www.w3.org/2000/svg">
<path d="M286.587 78.9978V12.7578H298.363V36.3098C301.583 30.9738 306.735 28.3058 312.991 28.3058C322.835 28.3058 329.551 34.1938 329.551 46.1538V78.9978H317.775V48.5458C317.775 41.8298 314.923 38.0578 308.943 38.0578C302.411 38.0578 298.363 43.7618 298.363 50.3858V78.9978H286.587Z" fill="white"/>
<path d="M280.824 47.1647H269.048C267.944 40.7247 264.08 38.0567 259.112 38.0567C251.844 38.0567 247.98 43.8527 247.98 54.4327C247.98 64.8287 252.028 70.6247 259.48 70.6247C264.54 70.6247 268.128 67.8647 269.324 62.2527H281.192C278.984 74.5807 270.336 80.3767 259.204 80.3767C244.668 80.3767 235.836 70.4407 235.836 54.4327C235.836 37.6887 244.944 28.3047 259.112 28.3047C270.336 28.3047 279.168 34.5607 280.824 47.1647Z" fill="white"/>
<path d="M205.498 78.9967V29.6847H217.274V36.8607C220.494 30.9727 225.462 28.3047 230.798 28.3047C232.822 28.3047 234.662 28.8567 235.582 29.6847V39.8967C234.018 39.4367 232.27 39.2527 230.154 39.2527C221.23 39.2527 217.274 44.5887 217.274 52.7767V78.9967H205.498Z" fill="white"/>
<path d="M176.145 80.3767C161.517 80.3767 152.501 70.5327 152.501 54.4327C152.501 37.6887 161.793 28.3047 176.145 28.3047C190.681 28.3047 199.697 38.2407 199.697 54.4327C199.697 70.9927 190.405 80.3767 176.145 80.3767ZM176.145 70.6247C183.597 70.6247 187.553 64.9207 187.553 54.4327C187.553 43.9447 183.505 38.0567 176.145 38.0567C168.601 38.0567 164.645 43.8527 164.645 54.4327C164.645 64.8287 168.693 70.6247 176.145 70.6247Z" fill="white"/>
<path d="M124.632 78.9975V26.6495H104.484V16.4375H157.2V26.6495H137.052V78.9975H124.632Z" fill="white"/>
<path d="M26.3941 7.623L13.1809 15.246L0.0185573 7.623L13.1809 0L26.3941 7.623Z" fill="white"/>
<path d="M39.6072 15.246L26.394 22.869L13.1809 15.246L26.3941 7.623L39.6072 15.246Z" fill="white"/>
<path d="M52.8204 22.869L39.6072 30.492L26.394 22.869L39.6072 15.246L52.8204 22.869Z" fill="white"/>
<path d="M66.0338 30.492L52.8206 38.115L39.6072 30.492L52.8204 22.869L66.0338 30.492Z" fill="white"/>
<path d="M79.196 38.115L66.0336 45.738L52.8206 38.115L66.0338 30.492L79.196 38.115Z" fill="white"/>
<path d="M52.8206 53.361V68.607L39.6075 76.23V60.984L52.8206 53.361Z" fill="white"/>
<path d="M79.196 38.115L79.1961 53.361L66.0338 60.984L66.0336 45.738L79.196 38.115Z" fill="white"/>
<path d="M26.394 68.607V83.853L13.1808 91.476V76.23L26.394 68.607Z" fill="white"/>
<path d="M26.3941 38.115L13.1809 45.738L0.0185547 38.115L13.1809 30.492L26.3941 38.115Z" fill="white"/>
<path d="M39.6072 45.738L26.394 53.361L13.1809 45.738L26.3941 38.115L39.6072 45.738Z" fill="white"/>
<path d="M52.8206 53.361L39.6075 60.984L26.394 53.361L39.6072 45.738L52.8206 53.361Z" fill="white"/>
<path d="M13.1809 0V15.246L0.0185573 22.869V7.623L13.1809 0Z" fill="white"/>
<path d="M13.1809 30.492V45.738L0.0185547 53.361V38.115L13.1809 30.492Z" fill="white"/>
<path d="M26.394 68.607L13.1808 76.23L0.0185547 68.607L13.1809 60.984L26.394 68.607Z" fill="white"/>
<path d="M13.1809 60.984L13.1808 76.23L0.0185547 83.853V68.607L13.1809 60.984Z" fill="white"/>
</svg>
